<svg width="490" height="490" viewBox="0 0 490 490" fill="none" xmlns="http://www.w3.org/2000/svg">
<path d="M452.372 248.747C445.961 239.372 438.619 230.542 434.028 220.176C427.663 205.803 427.078 189.657 424.265 174.192C412.149 107.566 355.966 53.7876 291.035 34.5594C235.577 18.1365 173.357 24.869 123.449 54.1017C73.5413 83.3344 36.987 134.969 27.481 192.021C17.975 249.073 36.2114 310.408 76.4242 351.98C116.637 393.552 178.13 413.84 234.929 402.92C277.765 394.684 316.157 370.053 347.061 339.268C340.753 338.982 333.547 337.362 327.827 340.765C314.247 347.594 302.577 357.877 288.343 363.529C263.434 374.675 234.39 371.64 209.9 360.886C210.325 361.073 225.659 344.924 227.298 343.405C232.017 339.033 242.477 331.781 243.95 325.514C226.937 323.35 212.179 334.266 197.368 340.553C188.911 344.142 179.487 346.353 170.551 348.595C165.535 349.853 160.499 351.027 155.48 352.272C153.106 352.861 143.444 356.964 141.504 355.993C114.737 342.596 88.4669 323.94 75.2273 296.231C57.5657 261.51 52.1757 220.693 60.3133 182.596C70.753 129.951 107.699 83.6388 156.235 60.9798C192.997 43.3444 235.829 40.1524 275.26 49.7025C311.761 58.0753 344.415 79.243 369.926 106.298C393.03 131.286 406.06 164.568 408.572 198.321C409.593 213.549 413.439 229.117 423.173 241.258C432.331 253.739 444.288 266.298 445.596 282.416C441.488 294.53 426.313 295.734 416.998 302.379C413.901 304.589 420.204 321.435 421.011 324.471C420.585 322.757 420.16 321.042 419.734 319.328C422.233 328.708 417.943 338.483 413.088 346.888C409.281 353.478 404.848 360.064 403.667 367.739C402.32 376.502 405.572 384.917 406.303 393.561C406.76 398.976 405.99 404.805 402.541 409.005C398.126 414.383 390.917 415.491 384.387 415.984C362.333 417.649 339.858 415.3 318.27 420.108C296.682 424.917 275.074 439.386 270.927 461.11C277.363 464.102 285.11 461.828 291.072 457.976C297.033 454.124 301.941 448.815 307.883 444.933C320.385 436.765 336.146 435.678 351.076 436C366.006 436.322 381.244 437.768 395.642 433.805C410.04 429.843 423.761 418.851 425.576 404.028C426.887 393.322 421.892 382.408 424.12 371.853C425.458 365.513 429.265 360.027 432.203 354.251C436.809 345.197 439.366 335.109 439.629 324.954C439.72 321.441 439.571 317.772 441.078 314.597C443.719 309.031 450.368 306.877 455.193 303.045C467.467 293.297 466.251 273.818 459.116 259.861C457.142 256 454.825 252.333 452.372 248.747Z" fill="#5C9DF5"/>
<path d="M216.019 91.1164C216.542 83.1098 221.33 76.3592 225.281 69.6608C231.98 76.5424 238.756 84.1039 240.954 93.759C243.518 104.278 238.992 114.9 233.34 123.614C231.875 114.404 230.698 105.141 228.892 96.0094C229.259 105.219 230.331 114.377 231.247 123.561C220.1 116.941 214.763 103.702 216.019 91.1164Z" fill="#60D394"/>
<path d="M272.536 104.305C276.618 94.4145 286.535 89.2861 295.902 85.466C297.236 95.0164 299.356 105.09 296.007 114.431C292.37 124.19 283.238 130.156 274.996 135.703C277.482 127.487 280.439 119.454 283.029 111.291C279.235 119.324 275.703 127.487 271.804 135.494C268.925 125.342 267.041 113.96 272.536 104.305Z" fill="#60D394"/>
<path d="M166.227 124.015C157.802 115.747 156.703 103.292 158.116 92.1722C168.765 95.3383 180.357 99.289 186.505 109.284C192.131 116.244 192.078 125.585 192.523 134.063C185.773 126.789 179.493 119.122 172.455 112.136C178.63 120.274 185.249 128.045 190.98 136.548C181.9 134.429 172.193 131.734 166.227 124.015Z" fill="#60D394"/>
<path d="M319.213 137.799C327.507 132.514 337.659 133.508 347 133.795C344.41 142.587 341.401 151.902 334.075 157.998C325.885 165.481 314.189 166.083 303.749 166.92C307.7 162.996 311.756 159.15 315.706 155.198C310.892 158.26 306.13 161.4 301.342 164.513C303.095 153.498 309.139 143.084 319.213 137.799Z" fill="#60D394"/>
<path d="M222.154 138.557C227.832 140.912 232.83 145.674 234.242 151.797C235.315 157.187 232.83 162.393 231.469 167.47C221.814 161.242 216.633 149.441 222.154 138.557Z" fill="#60D394"/>
<path d="M111.307 145.917C121.223 144.112 131.663 140.893 141.554 144.609C151.287 147.566 157.41 156.305 163.454 163.867C154.165 161.721 145.138 158.712 135.823 156.697C144.772 159.759 153.878 162.689 162.067 167.582C142.6 176.452 118.345 166.09 111.307 145.917Z" fill="#60D394"/>
<path d="M254.885 165.428C258.077 156.95 266.686 153.601 274.849 151.9C273.201 158.285 272.363 165.454 267.549 170.425C265.744 170.74 262.107 171.367 260.275 171.681C262.604 167.678 264.985 163.727 267.418 159.776C264.043 162.471 260.668 165.14 257.161 167.652L254.885 165.428Z" fill="#60D394"/>
<path d="M257.185 167.658C260.692 165.146 264.067 162.477 267.442 159.783C265.009 163.733 262.628 167.684 260.299 171.688C262.131 171.374 265.768 170.746 267.573 170.432C263.439 172.316 259.174 173.964 254.909 175.56C254.465 171.766 254.046 167.998 253.653 164.231L254.909 165.434L257.185 167.658Z" fill="#60D394"/>
<path d="M180.654 162.975C191.669 163.891 203.574 168.182 204.804 181.291C199.885 177.942 196.536 172.395 190.911 170.145C193.423 174.2 196.091 178.203 198.473 182.338C188.451 180.61 182.145 172.552 180.654 162.975Z" fill="#60D394"/>
<path d="M310.734 204.37C318.087 197.279 327.271 191.183 337.92 191.287C348.517 190.319 357.91 195.971 366.362 201.623C358.617 209.027 349.276 216.118 338.077 216.249C328.58 216.982 319.474 213.031 312.776 206.437C320.155 205.914 327.559 205.652 334.938 204.92C326.879 204.396 318.794 204.632 310.734 204.37Z" fill="#60D394"/>
<path d="M99.916 215.429C107.321 208.574 114.961 200.436 125.532 199.181C135.187 197.14 144.763 200.489 152.953 205.408C145.365 207.24 137.698 208.731 130.163 210.667C138.222 210.039 146.254 208.783 154.287 207.711C143.298 226.104 115.615 229.846 99.916 215.429Z" fill="#60D394"/>
<path d="M298.832 243.628C309.455 241.43 321.204 241.221 330.492 247.657C339.284 252.21 343.523 261.525 346.453 270.447C335.098 271.389 322.146 273.404 312.282 266.209C304.772 261.735 301.188 253.44 297.08 246.166C306.394 250.352 315.526 254.879 324.998 258.699C316.18 253.859 307.101 249.436 298.832 243.628Z" fill="#60D394"/>
<path d="M138.343 255.253C145.643 247.378 156.789 245.886 166.889 244.709C160.321 251.407 153.335 257.687 146.82 264.411C154.277 258.681 161.316 252.401 169.008 246.959C167.517 256.064 164.979 265.746 157.443 271.79C149.489 280.032 137.767 281.968 126.83 281.863C128.269 272.208 130.86 262.082 138.343 255.253Z" fill="#60D394"/>
<path d="M239.832 279.651C239.627 282.789 237.75 285.435 236.202 288.061C233.576 285.363 230.92 282.4 230.058 278.615C229.053 274.492 230.827 270.328 233.043 266.913C233.617 270.523 234.078 274.154 234.786 277.733C234.643 274.123 234.222 270.534 233.863 266.934C238.232 269.528 240.325 274.718 239.832 279.651Z" fill="#60D394"/>
<path d="M217.66 274.483C216.059 278.36 212.172 280.37 208.501 281.867C207.978 278.124 207.147 274.175 208.46 270.514C209.886 266.688 213.465 264.35 216.696 262.176C215.721 265.396 214.563 268.545 213.547 271.745C215.034 268.596 216.419 265.396 217.947 262.258C219.075 266.237 219.813 270.698 217.66 274.483Z" fill="#60D394"/>
<path d="M259.343 266.77C262.646 270.011 263.077 274.893 262.523 279.252C258.349 278.011 253.805 276.462 251.395 272.544C249.19 269.816 249.211 266.155 249.036 262.832C251.682 265.683 254.144 268.688 256.903 271.426C254.482 268.237 251.887 265.191 249.641 261.858C253.2 262.689 257.005 263.745 259.343 266.77Z" fill="#60D394"/>
<path d="M199.416 261.36C196.165 263.432 192.185 263.042 188.524 262.929C189.539 259.483 190.719 255.832 193.59 253.443C196.8 250.509 201.385 250.273 205.477 249.945C203.928 251.484 202.339 252.991 200.79 254.54C202.677 253.34 204.544 252.109 206.421 250.889C205.734 255.206 203.364 259.289 199.416 261.36Z" fill="#60D394"/>
<path d="M237.436 261.059C235.21 260.135 233.251 258.269 232.697 255.869C232.277 253.756 233.251 251.715 233.785 249.726C237.569 252.167 239.6 256.792 237.436 261.059Z" fill="#60D394"/>
<path d="M280.899 258.175C277.012 258.883 272.92 260.144 269.043 258.688C265.228 257.529 262.828 254.104 260.458 251.14C264.099 251.981 267.638 253.16 271.289 253.95C267.781 252.75 264.212 251.601 261.002 249.683C268.633 246.206 278.14 250.268 280.899 258.175Z" fill="#60D394"/>
<path d="M224.619 250.527C223.367 253.85 219.993 255.162 216.793 255.829C217.44 253.326 217.768 250.516 219.655 248.568C220.362 248.445 221.788 248.199 222.506 248.076C221.593 249.645 220.66 251.194 219.706 252.742C221.029 251.686 222.352 250.639 223.726 249.655L224.619 250.527Z" fill="#60D394"/>
<path d="M223.692 249.659C222.317 250.644 220.994 251.69 219.671 252.746C220.625 251.198 221.559 249.649 222.471 248.08C221.753 248.203 220.328 248.449 219.62 248.572C221.24 247.834 222.912 247.188 224.584 246.562C224.758 248.049 224.923 249.526 225.076 251.003L224.584 250.531L223.692 249.659Z" fill="#60D394"/>
<path d="M253.686 251.493C249.368 251.133 244.701 249.451 244.219 244.313C246.147 245.626 247.46 247.8 249.665 248.682C248.681 247.092 247.634 245.523 246.701 243.903C250.63 244.58 253.101 247.739 253.686 251.493Z" fill="#60D394"/>
<path d="M202.732 235.269C199.85 238.048 196.25 240.438 192.076 240.397C187.923 240.776 184.241 238.561 180.928 236.346C183.964 233.443 187.625 230.664 192.015 230.613C195.738 230.326 199.307 231.874 201.932 234.459C199.04 234.664 196.138 234.767 193.245 235.054C196.404 235.259 199.573 235.166 202.732 235.269Z" fill="#60D394"/>
<path d="M285.348 230.931C282.446 233.618 279.451 236.808 275.307 237.3C271.523 238.1 267.769 236.787 264.559 234.859C267.533 234.141 270.539 233.557 273.492 232.798C270.333 233.044 267.185 233.536 264.036 233.957C268.344 226.747 279.195 225.28 285.348 230.931Z" fill="#60D394"/>
<path d="M207.392 219.877C203.228 220.739 198.623 220.821 194.982 218.298C191.536 216.514 189.875 212.862 188.726 209.365C193.177 208.996 198.254 208.206 202.12 211.026C205.064 212.78 206.469 216.031 208.079 218.883C204.428 217.242 200.848 215.468 197.136 213.97C200.592 215.867 204.151 217.6 207.392 219.877Z" fill="#60D394"/>
<path d="M270.299 215.317C267.437 218.404 263.068 218.989 259.11 219.451C261.684 216.825 264.422 214.364 266.976 211.728C264.053 213.974 261.294 216.435 258.279 218.568C258.863 214.999 259.858 211.205 262.812 208.836C265.93 205.605 270.524 204.846 274.811 204.887C274.247 208.672 273.232 212.64 270.299 215.317Z" fill="#60D394"/>
<path d="M230.41 179.287H239.963V198.394H257.478V207.947H239.963V242.977H230.41V207.947H212.895V198.394H230.41V179.287Z" fill="#5C9DF5"/>
</svg>