<svg width="333" height="389" viewBox="0 0 333 389" fill="none" xmlns="http://www.w3.org/2000/svg">
<path d="M83.234 276.488C76.3187 282.555 66.9633 284.146 58.3298 286.373C58.4785 275.364 59.1145 263.739 65.1604 254.128C71.6097 243.521 83.892 238.578 95.5384 236.097C89.2592 244.752 82.704 253.216 76.7641 262.084C83.9347 254.32 90.4894 246.025 97.1927 237.836C100.863 252.241 94.4564 267.303 83.234 276.488Z" fill="#60D394"/>
<path d="M48.0617 219.935C36.7333 224.644 24.5353 220.761 13.8437 216.265C20.505 207.44 26.9544 197.554 37.2427 192.697C48.1043 187.733 60.3447 190.299 71.5244 192.485C62.8476 197.131 53.9382 201.246 45.2194 205.765C54.8083 202.328 64.2904 198.573 73.9426 195.243C68.0454 205.806 60.3448 216.562 48.0617 219.935Z" fill="#60D394"/>
<path d="M150.235 290.202C150.362 303.736 141.155 314.726 130.994 322.596C124.927 311.395 118.733 298.794 121.852 285.705C122.933 275.502 130.55 267.97 137.062 260.737C136.638 272.107 135.513 283.414 135.556 294.785C137.146 283.181 138.08 271.513 140.329 259.973C145.971 269.052 151.656 279.107 150.235 290.202Z" fill="#60D394"/>
<path d="M37.4692 155.056C26.4595 152.616 19.0343 143.579 11.6943 135.772C20.9225 130.745 30.9142 125.632 41.7965 126.629C54.5037 127.202 64.4744 136.197 73.6173 143.982C67.2314 143.961 60.8256 143.792 54.419 143.791C60.8049 145.212 67.2107 146.527 73.6173 147.885C63.2656 155.395 49.9217 158.938 37.4692 155.056Z" fill="#60D394"/>
<path d="M116.735 233.074C114.041 226.561 113.85 218.648 117.668 212.538C121.169 207.299 127.405 205.092 132.624 202.08C135.403 214.957 130.036 228.725 116.735 233.074Z" fill="#60D394"/>
<path d="M212.6 317.011C203.096 310.434 192.023 304.58 187.016 293.548C181.521 283.26 183.643 271.21 184.873 260.178C190.664 269.449 195.543 279.207 201.462 288.393C196.689 278.655 191.683 268.898 189.01 258.291C211.985 266.882 223.249 294.948 212.6 317.011Z" fill="#60D394"/>
<path d="M112.008 184.777C102.547 189.062 92.8519 184.799 84.8545 179.559C91.3678 175.719 97.859 170.585 105.792 170.458C107.511 171.667 110.968 174.107 112.708 175.337C107.574 176.695 102.44 177.968 97.2642 179.198C102.186 179.75 107.086 180.322 111.965 181.129L112.008 184.777Z" fill="#60D394"/>
<path d="M111.885 181.067C107.005 180.261 102.105 179.688 97.1833 179.136C102.36 177.906 107.494 176.633 112.627 175.275C110.887 174.045 107.43 171.605 105.712 170.396C110.591 172.221 115.384 174.342 120.137 176.506C117.421 179.943 114.706 183.337 111.969 186.71L111.927 184.716L111.885 181.067Z" fill="#60D394"/>
<path d="M170.133 246.898C161.945 237.225 155.771 224.093 165.403 212.468C166.676 219.172 164.894 226.384 167.63 232.769C168.883 227.445 169.964 222.035 171.386 216.753C178.11 226.279 176.689 237.926 170.133 246.898Z" fill="#60D394"/>
<path d="M98.2973 107.948C86.5869 107.736 74.1985 105.232 65.649 96.5132C56.2728 88.7065 53.2386 76.5086 50.969 65.0742C63.2522 65.3495 76.5741 67.1744 85.7596 76.1479C94.0544 83.2546 98.2328 93.8404 98.3181 104.617C91.9115 99.0589 85.6955 93.2683 79.1189 87.8798C85.2288 94.8377 91.9754 101.202 98.2973 107.948Z" fill="#60D394"/>
<path d="M278.156 269.861C266.595 269.416 253.802 269.819 244.213 262.267C234.73 256.094 229.682 245.614 227.03 234.986C234.667 239.653 242.092 244.659 249.771 249.199C242.728 243.174 235.197 237.68 227.815 232.037C251.638 226.033 277.116 245.444 278.156 269.861Z" fill="#60D394"/>
<path d="M139.772 85.7492C129.377 78.9186 119.683 69.5631 117.37 56.8133C113.933 45.9943 118.048 35.0059 122.906 25.3957C132.877 33.8391 145.011 42.7065 147.175 56.5371C149.636 66.2533 145.818 75.8842 143.25 85.1124C139.093 74.1661 135.359 63.093 130.776 52.3154C134.002 63.3897 137.778 74.3355 139.772 85.7492Z" fill="#60D394"/>
<path d="M279.323 206.436C267.019 206.902 256.772 199.074 247.629 191.841C258.384 191.735 269.141 192.308 279.874 192.138C269.183 190.738 258.385 190.122 247.735 188.297C256.327 182.124 266.234 176.333 277.244 177.542C290.376 177.309 301.449 185.243 310.232 194.195C301.237 200.857 290.927 206.966 279.323 206.436Z" fill="#60D394"/>
</svg>