<svg width="96" height="38" viewBox="0 0 96 38" fill="none" xmlns="http://www.w3.org/2000/svg">
<path d="M35.0009 19.3234C34.5047 18.5978 33.9364 17.9143 33.5811 17.1119C33.0884 15.9995 33.0431 14.7497 32.8254 13.5527C31.8876 8.39583 27.539 4.23333 22.5133 2.74504C18.2208 1.4739 13.4049 1.995 9.54198 4.25764C5.67906 6.52028 2.84973 10.5168 2.11395 14.9327C1.37818 19.3486 2.78969 24.096 5.9022 27.3137C9.01473 30.5314 13.7743 32.1017 18.1706 31.2565C21.4862 30.6191 24.4577 28.7126 26.8498 26.3298C26.3615 26.3077 25.8038 26.1823 25.361 26.4456C24.3099 26.9742 23.4066 27.7701 22.3049 28.2076C20.3769 29.0703 18.1289 28.8354 16.2333 28.003C16.2663 28.0175 17.4531 26.7675 17.58 26.65C17.9452 26.3116 18.7548 25.7503 18.8689 25.2652C17.5521 25.0977 16.4098 25.9426 15.2634 26.4292C14.6088 26.707 13.8794 26.8782 13.1877 27.0517C12.7995 27.149 12.4096 27.2399 12.0212 27.3363C11.8374 27.3819 11.0896 27.6995 10.9394 27.6243C8.86764 26.5874 6.83431 25.1434 5.80956 22.9987C4.44253 20.3112 4.02535 17.1519 4.6552 14.2032C5.46325 10.1285 8.32286 6.54384 12.0796 4.79001C14.925 3.42501 18.2403 3.17795 21.2923 3.91713C24.1175 4.5652 26.6449 6.2036 28.6195 8.29767C30.4078 10.2317 31.4164 12.8078 31.6108 15.4203C31.6898 16.599 31.9875 17.804 32.7409 18.7437C33.4497 19.7097 34.3752 20.6818 34.4765 21.9294C34.1585 22.867 32.9839 22.9602 32.2629 23.4746C32.0232 23.6456 32.511 24.9495 32.5735 25.1845C32.5406 25.0518 32.5077 24.9191 32.4747 24.7864C32.6681 25.5124 32.3361 26.269 31.9603 26.9196C31.6656 27.4296 31.3225 27.9394 31.2311 28.5334C31.1268 29.2117 31.3786 29.8631 31.4351 30.5321C31.4705 30.9512 31.4109 31.4024 31.144 31.7275C30.8022 32.1437 30.2443 32.2295 29.7388 32.2677C28.0318 32.3966 26.2922 32.2147 24.6213 32.5869C22.9504 32.9591 21.2779 34.079 20.9569 35.7605C21.4551 35.9921 22.0547 35.816 22.5161 35.5179C22.9775 35.2197 23.3574 34.8088 23.8174 34.5083C24.785 33.8762 26.0049 33.792 27.1605 33.8169C28.3161 33.8418 29.4955 33.9537 30.6099 33.6471C31.7244 33.3404 32.7864 32.4896 32.9269 31.3423C33.0284 30.5136 32.6417 29.6688 32.8142 28.8519C32.9177 28.3611 33.2124 27.9366 33.4398 27.4895C33.7963 26.7887 33.9943 26.0078 34.0146 25.2219C34.0216 24.9499 34.0101 24.666 34.1267 24.4202C34.3312 23.9894 34.8458 23.8227 35.2192 23.5261C36.1693 22.7716 36.0752 21.2639 35.5229 20.1836C35.3701 19.8847 35.1908 19.601 35.0009 19.3234Z" fill="#5C9DF5"/>
<path d="M16.707 7.12263C16.7475 6.50292 17.1181 5.98041 17.4239 5.46195C17.9424 5.99459 18.4669 6.57986 18.637 7.32717C18.8355 8.14132 18.4851 8.96354 18.0477 9.63795C17.9343 8.92508 17.8432 8.20815 17.7034 7.50135C17.7318 8.21422 17.8148 8.92305 17.8857 9.63391C17.0229 9.12152 16.6098 8.09676 16.707 7.12263Z" fill="#60D394"/>
<path d="M21.0816 8.14342C21.3975 7.37789 22.1651 6.98096 22.8901 6.68527C22.9934 7.42448 23.1574 8.20418 22.8982 8.92718C22.6167 9.68257 21.9099 10.1443 21.272 10.5737C21.4644 9.93776 21.6932 9.31601 21.8937 8.68416C21.6001 9.3059 21.3267 9.93776 21.0249 10.5575C20.8021 9.77168 20.6563 8.89073 21.0816 8.14342Z" fill="#60D394"/>
<path d="M12.8531 9.66903C12.201 9.02907 12.1159 8.06505 12.2253 7.20434C13.0496 7.4494 13.9467 7.75519 14.4227 8.52882C14.8581 9.06753 14.854 9.79053 14.8885 10.4467C14.3659 9.88368 13.8799 9.29031 13.3351 8.74957C13.8131 9.37942 14.3255 9.9809 14.769 10.6391C14.0662 10.4751 13.3149 10.2665 12.8531 9.66903Z" fill="#60D394"/>
<path d="M24.6943 10.7359C25.3363 10.3268 26.1221 10.4037 26.8451 10.426C26.6446 11.1065 26.4117 11.8275 25.8446 12.2993C25.2107 12.8785 24.3055 12.9251 23.4974 12.9899C23.8032 12.6861 24.1171 12.3884 24.4229 12.0826C24.0502 12.3196 23.6817 12.5626 23.3111 12.8036C23.4468 11.951 23.9146 11.145 24.6943 10.7359Z" fill="#60D394"/>
<path d="M17.1819 10.7946C17.6214 10.9768 18.0082 11.3454 18.1176 11.8193C18.2006 12.2365 18.0082 12.6395 17.9029 13.0324C17.1556 12.5504 16.7546 11.637 17.1819 10.7946Z" fill="#60D394"/>
<path d="M8.60217 11.3643C9.36973 11.2245 10.1778 10.9754 10.9433 11.263C11.6967 11.4918 12.1706 12.1683 12.6384 12.7536C11.9195 12.5875 11.2208 12.3546 10.4998 12.1986C11.1924 12.4356 11.8972 12.6624 12.5311 13.0411C11.0243 13.7277 9.14695 12.9257 8.60217 11.3643Z" fill="#60D394"/>
<path d="M19.7153 12.8744C19.9623 12.2182 20.6286 11.959 21.2605 11.8274C21.1329 12.3215 21.0681 12.8764 20.6955 13.2612C20.5557 13.2855 20.2742 13.3341 20.1325 13.3584C20.3127 13.0486 20.497 12.7428 20.6853 12.437C20.4241 12.6456 20.1628 12.8521 19.8914 13.0465L19.7153 12.8744Z" fill="#60D394"/>
<path d="M19.8934 13.047C20.1648 12.8526 20.426 12.646 20.6873 12.4374C20.4989 12.7432 20.3147 13.0491 20.1344 13.3589C20.2762 13.3346 20.5577 13.286 20.6974 13.2617C20.3774 13.4075 20.0473 13.5351 19.7172 13.6586C19.6828 13.365 19.6504 13.0733 19.62 12.7817L19.7172 12.8749L19.8934 13.047Z" fill="#60D394"/>
<path d="M13.9696 12.6846C14.8222 12.7554 15.7436 13.0876 15.8388 14.1022C15.4581 13.843 15.1989 13.4136 14.7635 13.2395C14.9579 13.5534 15.1645 13.8632 15.3488 14.1832C14.5731 14.0495 14.085 13.4258 13.9696 12.6846Z" fill="#60D394"/>
<path d="M24.0382 15.8885C24.6073 15.3397 25.3181 14.8678 26.1424 14.8759C26.9626 14.801 27.6896 15.2384 28.3438 15.6759C27.7443 16.249 27.0213 16.7979 26.1545 16.808C25.4194 16.8647 24.7146 16.5589 24.1962 16.0485C24.7673 16.008 25.3404 15.9878 25.9115 15.9311C25.2877 15.8906 24.6619 15.9088 24.0382 15.8885Z" fill="#60D394"/>
<path d="M7.72055 16.7445C8.29368 16.2139 8.88505 15.5841 9.70323 15.4869C10.4505 15.3289 11.1918 15.5881 11.8256 15.9689C11.2383 16.1107 10.6449 16.2261 10.0617 16.376C10.6855 16.3274 11.3072 16.2302 11.9289 16.1471C11.0784 17.5708 8.9357 17.8604 7.72055 16.7445Z" fill="#60D394"/>
<path d="M23.1168 18.9271C23.9391 18.757 24.8484 18.7408 25.5673 19.239C26.2478 19.5914 26.5759 20.3124 26.8027 21.003C25.9238 21.0759 24.9213 21.2319 24.1578 20.6749C23.5766 20.3286 23.2991 19.6866 22.9812 19.1236C23.7021 19.4476 24.4089 19.798 25.1421 20.0937C24.4595 19.719 23.7568 19.3767 23.1168 18.9271Z" fill="#60D394"/>
<path d="M10.6949 19.827C11.2599 19.2174 12.1226 19.1019 12.9043 19.0108C12.396 19.5293 11.8553 20.0153 11.351 20.5358C11.9282 20.0923 12.473 19.6062 13.0684 19.185C12.953 19.8897 12.7565 20.6391 12.1732 21.1069C11.5576 21.7449 10.6503 21.8947 9.80374 21.8866C9.91515 21.1393 10.1157 20.3555 10.6949 19.827Z" fill="#60D394"/>
<path d="M18.5501 21.7154C18.5342 21.9583 18.3889 22.1631 18.2691 22.3663C18.0659 22.1575 17.8603 21.9281 17.7936 21.6352C17.7158 21.3161 17.8531 20.9938 18.0246 20.7294C18.069 21.0089 18.1047 21.2899 18.1595 21.5669C18.1484 21.2875 18.1159 21.0097 18.0881 20.731C18.4262 20.9319 18.5882 21.3335 18.5501 21.7154Z" fill="#60D394"/>
<path d="M16.8339 21.3155C16.71 21.6155 16.4092 21.7711 16.125 21.887C16.0845 21.5973 16.0202 21.2917 16.1218 21.0083C16.2322 20.7122 16.5092 20.5312 16.7593 20.3629C16.6838 20.6122 16.5942 20.8559 16.5156 21.1035C16.6307 20.8598 16.7378 20.6122 16.8561 20.3693C16.9434 20.6772 17.0006 21.0226 16.8339 21.3155Z" fill="#60D394"/>
<path d="M20.0603 20.7184C20.3159 20.9692 20.3493 21.3471 20.3064 21.6845C19.9833 21.5884 19.6317 21.4685 19.4452 21.1653C19.2745 20.9542 19.2761 20.6707 19.2626 20.4136C19.4674 20.6342 19.6579 20.8668 19.8714 21.0788C19.6841 20.8319 19.4832 20.5962 19.3094 20.3382C19.5848 20.4025 19.8793 20.4842 20.0603 20.7184Z" fill="#60D394"/>
<path d="M15.4219 20.2996C15.1702 20.46 14.8622 20.4298 14.5788 20.4211C14.6574 20.1544 14.7487 19.8718 14.971 19.6868C15.2194 19.4598 15.5743 19.4415 15.891 19.4161C15.7711 19.5352 15.6481 19.6519 15.5282 19.7717C15.6743 19.6789 15.8188 19.5836 15.964 19.4891C15.9109 19.8233 15.7275 20.1393 15.4219 20.2996Z" fill="#60D394"/>
<path d="M18.3647 20.2763C18.1925 20.2048 18.0408 20.0604 17.998 19.8746C17.9654 19.7111 18.0408 19.5531 18.0821 19.3991C18.3751 19.588 18.5322 19.9461 18.3647 20.2763Z" fill="#60D394"/>
<path d="M21.7287 20.0531C21.4279 20.1079 21.1111 20.2055 20.8111 20.0928C20.5158 20.0031 20.33 19.738 20.1466 19.5086C20.4284 19.5737 20.7023 19.6649 20.9849 19.7261C20.7134 19.6332 20.4372 19.5443 20.1887 19.3958C20.7793 19.1267 21.5152 19.4411 21.7287 20.0531Z" fill="#60D394"/>
<path d="M17.3726 19.4611C17.2758 19.7183 17.0146 19.8199 16.767 19.8715C16.817 19.6778 16.8424 19.4603 16.9884 19.3095C17.0432 19.3 17.1535 19.2809 17.2091 19.2714C17.1385 19.3929 17.0662 19.5127 16.9924 19.6326C17.0948 19.5508 17.1972 19.4698 17.3036 19.3937L17.3726 19.4611Z" fill="#60D394"/>
<path d="M17.3008 19.394C17.1944 19.4702 17.092 19.5512 16.9896 19.6329C17.0634 19.513 17.1357 19.3932 17.2063 19.2717C17.1508 19.2813 17.0404 19.3003 16.9857 19.3098C17.1111 19.2527 17.2405 19.2027 17.3699 19.1542C17.3834 19.2694 17.3961 19.3837 17.408 19.498L17.3699 19.4614L17.3008 19.394Z" fill="#60D394"/>
<path d="M19.6224 19.5359C19.2882 19.5081 18.927 19.3779 18.8897 18.9802C19.0389 19.0818 19.1405 19.2501 19.3112 19.3183C19.235 19.1953 19.154 19.0738 19.0818 18.9484C19.3858 19.0008 19.5771 19.2453 19.6224 19.5359Z" fill="#60D394"/>
<path d="M15.6785 18.2801C15.4554 18.4953 15.1768 18.6802 14.8537 18.6771C14.5322 18.7064 14.2472 18.535 13.9908 18.3635C14.2258 18.1388 14.5092 17.9237 14.849 17.9198C15.1371 17.8975 15.4133 18.0174 15.6166 18.2174C15.3927 18.2333 15.1681 18.2413 14.9442 18.2635C15.1887 18.2794 15.434 18.2722 15.6785 18.2801Z" fill="#60D394"/>
<path d="M22.0731 17.9444C21.8485 18.1524 21.6167 18.3993 21.296 18.4374C21.003 18.4993 20.7125 18.3977 20.464 18.2484C20.6943 18.1929 20.9268 18.1476 21.1555 18.0889C20.911 18.1079 20.6673 18.146 20.4236 18.1786C20.757 17.6205 21.5968 17.507 22.0731 17.9444Z" fill="#60D394"/>
<path d="M16.0392 17.0888C15.7169 17.1555 15.3605 17.1619 15.0787 16.9666C14.812 16.8285 14.6834 16.5459 14.5945 16.2752C14.939 16.2466 15.3319 16.1855 15.6312 16.4038C15.859 16.5395 15.9678 16.7911 16.0924 17.0118C15.8098 16.8848 15.5328 16.7475 15.2454 16.6316C15.5129 16.7784 15.7884 16.9126 16.0392 17.0888Z" fill="#60D394"/>
<path d="M20.9082 16.7359C20.6868 16.9748 20.3486 17.0201 20.0422 17.0558C20.2414 16.8526 20.4534 16.662 20.651 16.458C20.4248 16.6319 20.2113 16.8224 19.9779 16.9875C20.0231 16.7112 20.1001 16.4175 20.3288 16.2342C20.5701 15.9841 20.9257 15.9254 21.2575 15.9285C21.2139 16.2215 21.1353 16.5287 20.9082 16.7359Z" fill="#60D394"/>
<g clip-path="url(#clip0_4_148)">
<path d="M17.8208 13.9471H18.5603V15.4259H19.9159V16.1654H18.5603V18.8767H17.8208V16.1654H16.4652V15.4259H17.8208V13.9471Z" fill="#5C9DF5"/>
</g>
<path d="M95.1168 6.29827V19.954H92.8769V10.6013L88.7114 19.954H87.1592L82.974 10.6013V19.954H80.7341V6.29827H83.1509L87.9451 17.0067L92.7197 6.29827H95.1168Z" fill="#5C9DF5"/>
<path d="M65.576 13.0965C65.576 11.7604 65.8838 10.5618 66.4995 9.50079C67.1283 8.43977 67.9731 7.61453 69.0342 7.02507C70.1083 6.42252 71.2806 6.12124 72.5512 6.12124C74.0052 6.12124 75.2955 6.48147 76.422 7.20191C77.5616 7.90926 78.3869 8.91788 78.8977 10.2278H76.2059C75.8522 9.50734 75.361 8.97028 74.7322 8.61661C74.1035 8.26293 73.3765 8.0861 72.5512 8.0861C71.6474 8.0861 70.8418 8.28913 70.1345 8.6952C69.4271 9.10127 68.8704 9.68418 68.4644 10.4439C68.0714 11.2037 67.8749 12.0878 67.8749 13.0965C67.8749 14.1051 68.0714 14.9893 68.4644 15.749C68.8704 16.5088 69.4271 17.0982 70.1345 17.5174C70.8418 17.9235 71.6474 18.1265 72.5512 18.1265C73.3765 18.1265 74.1035 17.9497 74.7322 17.596C75.361 17.2423 75.8522 16.7052 76.2059 15.9848H78.8977C78.3869 17.2947 77.5616 18.3033 76.422 19.0107C75.2955 19.718 74.0052 20.0717 72.5512 20.0717C71.2675 20.0717 70.0952 19.777 69.0342 19.1875C67.9731 18.585 67.1283 17.7532 66.4995 16.6922C65.8838 15.6311 65.576 14.4326 65.576 13.0965Z" fill="#5C9DF5"/>
<path d="M62.045 12.9395C62.7785 13.0705 63.4008 13.4569 63.9116 14.0987C64.4225 14.7406 64.6779 15.4676 64.6779 16.2797C64.6779 16.974 64.4945 17.6027 64.1277 18.166C63.7741 18.7161 63.2567 19.155 62.5755 19.4824C61.8944 19.7968 61.1019 19.954 60.198 19.954H54.7357V6.29827H59.9426C60.8726 6.29827 61.6717 6.45546 62.3397 6.76984C63.0078 7.08421 63.5121 7.50993 63.8527 8.04699C64.1932 8.57095 64.3635 9.16041 64.3635 9.81536C64.3635 10.6013 64.1539 11.2563 63.7348 11.7802C63.3156 12.3042 62.7524 12.6906 62.045 12.9395ZM56.9757 12.0356H59.7461C60.4797 12.0356 61.0495 11.8719 61.4555 11.5444C61.8747 11.2039 62.0843 10.7192 62.0843 10.0904C62.0843 9.47478 61.8747 8.99667 61.4555 8.65609C61.0495 8.30242 60.4797 8.12558 59.7461 8.12558H56.9757V12.0356ZM60.0016 18.1267C60.7613 18.1267 61.3573 17.9433 61.7896 17.5765C62.2218 17.2098 62.438 16.6989 62.438 16.0439C62.438 15.3759 62.2087 14.8454 61.7503 14.4524C61.2918 14.0594 60.6827 13.863 59.923 13.863H56.9757V18.1267H60.0016Z" fill="#5C9DF5"/>
<path d="M50.0531 17.1622H44.3354L43.3529 19.9523H41.0148L45.9072 6.27691H48.5008L53.3933 19.9523H51.0355L50.0531 17.1622ZM49.4243 15.3349L47.204 8.9884L44.9641 15.3349H49.4243Z" fill="#5C9DF5"/>
<path d="M92.7762 25.9845C93.225 25.9845 93.6254 26.0777 93.9775 26.2641C94.3365 26.4506 94.6161 26.7267 94.8163 27.0926C95.0165 27.4585 95.1166 27.9004 95.1166 28.4181V31.7838H93.9464V28.5942C93.9464 28.0833 93.8187 27.6932 93.5632 27.424C93.3078 27.1478 92.9592 27.0098 92.5173 27.0098C92.0755 27.0098 91.7234 27.1478 91.461 27.424C91.2056 27.6932 91.0779 28.0833 91.0779 28.5942V31.7838H89.8973V26.0777H91.0779V26.7302C91.2712 26.4954 91.5163 26.3125 91.8131 26.1813C92.1169 26.0501 92.4379 25.9845 92.7762 25.9845Z" fill="#5C9DF5"/>
<path d="M86.1804 31.877C85.6419 31.877 85.1552 31.7562 84.7203 31.5145C84.2853 31.266 83.9436 30.9208 83.695 30.4789C83.4465 30.0302 83.3222 29.5124 83.3222 28.9256C83.3222 28.3457 83.45 27.8313 83.7054 27.3826C83.9608 26.9338 84.3095 26.5886 84.7513 26.347C85.1932 26.1054 85.6868 25.9845 86.2322 25.9845C86.7776 25.9845 87.2712 26.1054 87.7131 26.347C88.1549 26.5886 88.5036 26.9338 88.759 27.3826C89.0145 27.8313 89.1422 28.3457 89.1422 28.9256C89.1422 29.5055 89.011 30.0198 88.7487 30.4686C88.4863 30.9173 88.1273 31.266 87.6717 31.5145C87.2229 31.7562 86.7258 31.877 86.1804 31.877ZM86.1804 30.8518C86.4842 30.8518 86.7673 30.7793 87.0296 30.6343C87.2988 30.4893 87.5163 30.2718 87.682 29.9819C87.8477 29.6919 87.9305 29.3398 87.9305 28.9256C87.9305 28.5113 87.8512 28.1627 87.6924 27.8796C87.5336 27.5897 87.323 27.3722 87.0607 27.2272C86.7983 27.0823 86.5153 27.0098 86.2115 27.0098C85.9077 27.0098 85.6247 27.0823 85.3623 27.2272C85.1069 27.3722 84.9032 27.5897 84.7513 27.8796C84.5994 28.1627 84.5235 28.5113 84.5235 28.9256C84.5235 29.54 84.6788 30.0164 84.9895 30.3547C85.3071 30.6861 85.7041 30.8518 86.1804 30.8518Z" fill="#5C9DF5"/>
<path d="M81.9913 25.3229C81.7773 25.3229 81.5978 25.2504 81.4528 25.1054C81.3078 24.9604 81.2353 24.7809 81.2353 24.5669C81.2353 24.3529 81.3078 24.1734 81.4528 24.0284C81.5978 23.8834 81.7773 23.8109 81.9913 23.8109C82.1984 23.8109 82.3745 23.8834 82.5194 24.0284C82.6644 24.1734 82.7369 24.3529 82.7369 24.5669C82.7369 24.7809 82.6644 24.9604 82.5194 25.1054C82.3745 25.2504 82.1984 25.3229 81.9913 25.3229ZM82.5712 26.0789V31.7849H81.3907V26.0789H82.5712Z" fill="#5C9DF5"/>
<path d="M79.3338 27.0423V30.2008C79.3338 30.4148 79.3821 30.5702 79.4788 30.6668C79.5823 30.7566 79.7549 30.8014 79.9966 30.8014H80.7215V31.7852H79.7894C79.2579 31.7852 78.8505 31.661 78.5675 31.4124C78.2844 31.1639 78.1429 30.76 78.1429 30.2008V27.0423H77.4698V26.0792H78.1429V24.6605H79.3338V26.0792H80.7215V27.0423H79.3338Z" fill="#5C9DF5"/>
<path d="M70.9519 28.9049C70.9519 28.3318 71.0693 27.8244 71.304 27.3826C71.5456 26.9407 71.8701 26.599 72.2774 26.3573C72.6917 26.1088 73.1473 25.9845 73.6444 25.9845C74.0931 25.9845 74.4832 26.0743 74.8146 26.2538C75.1529 26.4264 75.4221 26.6439 75.6223 26.9062V26.0777H76.8133V31.7838H75.6223V30.9346C75.4221 31.2038 75.1494 31.4282 74.8042 31.6077C74.459 31.7872 74.0655 31.877 73.6237 31.877C73.1335 31.877 72.6848 31.7527 72.2774 31.5042C71.8701 31.2487 71.5456 30.8966 71.304 30.4479C71.0693 29.9922 70.9519 29.4779 70.9519 28.9049ZM75.6223 28.9256C75.6223 28.5321 75.5395 28.1903 75.3738 27.9004C75.215 27.6104 75.0044 27.3895 74.7421 27.2376C74.4797 27.0857 74.1967 27.0098 73.8929 27.0098C73.5892 27.0098 73.3061 27.0857 73.0438 27.2376C72.7814 27.3826 72.5674 27.6 72.4017 27.89C72.2429 28.1731 72.1635 28.5113 72.1635 28.9049C72.1635 29.2984 72.2429 29.6436 72.4017 29.9404C72.5674 30.2373 72.7814 30.4651 73.0438 30.6239C73.313 30.7758 73.5961 30.8518 73.8929 30.8518C74.1967 30.8518 74.4797 30.7758 74.7421 30.6239C75.0044 30.472 75.215 30.2511 75.3738 29.9612C75.5395 29.6643 75.6223 29.3191 75.6223 28.9256Z" fill="#5C9DF5"/>
<path d="M64.3492 28.9066C64.3492 28.3336 64.4666 27.8262 64.7013 27.3843C64.943 26.9425 65.2675 26.6008 65.6748 26.3591C66.089 26.1106 66.5481 25.9863 67.0521 25.9863C67.4249 25.9863 67.7908 26.0692 68.1498 26.2349C68.5157 26.3936 68.8057 26.6077 69.0197 26.8769V24.1223H70.2106V31.7855H69.0197V30.926C68.8264 31.2022 68.5571 31.43 68.2119 31.6095C67.8737 31.789 67.4836 31.8788 67.0417 31.8788C66.5447 31.8788 66.089 31.7545 65.6748 31.5059C65.2675 31.2505 64.943 30.8984 64.7013 30.4497C64.4666 29.994 64.3492 29.4797 64.3492 28.9066ZM69.0197 28.9274C69.0197 28.5338 68.9368 28.1921 68.7712 27.9021C68.6124 27.6122 68.4018 27.3913 68.1394 27.2394C67.8771 27.0875 67.594 27.0115 67.2903 27.0115C66.9865 27.0115 66.7035 27.0875 66.4411 27.2394C66.1788 27.3843 65.9647 27.6018 65.799 27.8918C65.6403 28.1748 65.5609 28.5131 65.5609 28.9066C65.5609 29.3002 65.6403 29.6454 65.799 29.9422C65.9647 30.2391 66.1788 30.4669 66.4411 30.6257C66.7104 30.7776 66.9934 30.8535 67.2903 30.8535C67.594 30.8535 67.8771 30.7776 68.1394 30.6257C68.4018 30.4738 68.6124 30.2529 68.7712 29.9629C68.9368 29.6661 69.0197 29.3209 69.0197 28.9274Z" fill="#5C9DF5"/>
<path d="M61.3157 25.9845C61.7644 25.9845 62.1648 26.0777 62.5169 26.2641C62.8759 26.4506 63.1555 26.7267 63.3557 27.0926C63.556 27.4585 63.6561 27.9004 63.6561 28.4181V31.7838H62.4859V28.5942C62.4859 28.0833 62.3581 27.6932 62.1027 27.424C61.8473 27.1478 61.4986 27.0098 61.0568 27.0098C60.6149 27.0098 60.2628 27.1478 60.0005 27.424C59.745 27.6932 59.6173 28.0833 59.6173 28.5942V31.7838H58.4368V26.0777H59.6173V26.7302C59.8106 26.4954 60.0557 26.3125 60.3526 26.1813C60.6563 26.0501 60.9774 25.9845 61.3157 25.9845Z" fill="#5C9DF5"/>
<path d="M57.2899 26.0783V31.7843H56.1093V31.1112C55.9229 31.3459 55.6778 31.5323 55.3741 31.6704C55.0772 31.8016 54.7596 31.8672 54.4213 31.8672C53.9726 31.8672 53.5687 31.774 53.2097 31.5876C52.8576 31.4011 52.578 31.125 52.3709 30.7591C52.1707 30.3932 52.0706 29.9513 52.0706 29.4336V26.0783H53.2408V29.2575C53.2408 29.7684 53.3685 30.1619 53.6239 30.4381C53.8794 30.7073 54.228 30.8419 54.6699 30.8419C55.1117 30.8419 55.4604 30.7073 55.7158 30.4381C55.9782 30.1619 56.1093 29.7684 56.1093 29.2575V26.0783H57.2899Z" fill="#5C9DF5"/>
<path d="M48.4062 31.877C47.8677 31.877 47.381 31.7562 46.946 31.5145C46.5111 31.266 46.1693 30.9208 45.9208 30.4789C45.6723 30.0302 45.548 29.5124 45.548 28.9256C45.548 28.3457 45.6757 27.8313 45.9312 27.3826C46.1866 26.9338 46.5352 26.5886 46.9771 26.347C47.4189 26.1054 47.9126 25.9845 48.458 25.9845C49.0034 25.9845 49.497 26.1054 49.9388 26.347C50.3807 26.5886 50.7293 26.9338 50.9848 27.3826C51.2402 27.8313 51.3679 28.3457 51.3679 28.9256C51.3679 29.5055 51.2368 30.0198 50.9744 30.4686C50.7121 30.9173 50.3531 31.266 49.8974 31.5145C49.4487 31.7562 48.9516 31.877 48.4062 31.877ZM48.4062 30.8518C48.7099 30.8518 48.993 30.7793 49.2554 30.6343C49.5246 30.4893 49.7421 30.2718 49.9078 29.9819C50.0735 29.6919 50.1563 29.3398 50.1563 28.9256C50.1563 28.5113 50.0769 28.1627 49.9181 27.8796C49.7593 27.5897 49.5488 27.3722 49.2864 27.2272C49.0241 27.0823 48.741 27.0098 48.4372 27.0098C48.1335 27.0098 47.8504 27.0823 47.5881 27.2272C47.3326 27.3722 47.129 27.5897 46.9771 27.8796C46.8252 28.1627 46.7493 28.5113 46.7493 28.9256C46.7493 29.54 46.9046 30.0164 47.2153 30.3547C47.5328 30.6861 47.9298 30.8518 48.4062 30.8518Z" fill="#5C9DF5"/>
<path d="M45.2503 24.5873V25.5504H42.1953V27.6733H44.5771V28.6364H42.1953V31.7846H41.0148V24.5873H45.2503Z" fill="#5C9DF5"/>
<defs>
<clipPath id="clip0_4_148">
<rect width="5.91559" height="5.91559" fill="white" transform="translate(15.2328 13.4541)"/>
</clipPath>
</defs>
</svg>