<svg width="354" height="389" viewBox="0 0 354 389" fill="none" xmlns="http://www.w3.org/2000/svg">
<path d="M248.796 111.542C255.711 105.475 265.067 103.884 273.7 101.657C273.552 112.666 272.916 124.291 266.87 133.902C260.42 144.509 248.138 149.452 236.492 151.933C242.771 143.278 249.326 134.814 255.266 125.946C248.095 133.71 241.541 142.005 234.837 150.194C231.167 135.789 237.574 120.727 248.796 111.542Z" fill="#60D394"/>
<path d="M283.968 168.095C295.297 163.386 307.495 167.269 318.186 171.765C311.525 180.59 305.076 190.476 294.787 195.333C283.926 200.297 271.685 197.731 260.506 195.545C269.182 190.899 278.092 186.784 286.811 182.265C277.222 185.702 267.74 189.457 258.087 192.787C263.985 182.224 271.685 171.468 283.968 168.095Z" fill="#60D394"/>
<path d="M181.795 97.8277C181.668 84.2938 190.875 73.3041 201.036 65.4341C207.103 76.6351 213.297 89.2361 210.178 102.325C209.097 112.528 201.48 120.06 194.968 127.293C195.392 115.923 196.517 104.616 196.474 93.2453C194.884 104.849 193.95 116.517 191.701 128.057C186.06 118.978 180.374 108.923 181.795 97.8277Z" fill="#60D394"/>
<path d="M294.561 232.974C305.57 235.414 312.996 244.451 320.336 252.258C311.107 257.285 301.116 262.398 290.233 261.401C277.526 260.828 267.556 251.833 258.413 244.048C264.799 244.069 271.204 244.238 277.611 244.239C271.225 242.818 264.819 241.503 258.413 240.145C268.764 232.635 282.108 229.092 294.561 232.974Z" fill="#60D394"/>
<path d="M215.295 154.957C217.989 161.469 218.18 169.383 214.362 175.492C210.862 180.731 204.625 182.938 199.406 185.95C196.627 173.073 201.994 159.305 215.295 154.957Z" fill="#60D394"/>
<path d="M119.43 71.0192C128.934 77.5958 140.007 83.4504 145.014 94.4821C150.509 104.77 148.387 116.82 147.157 127.852C141.366 118.581 136.487 108.823 130.568 99.6371C135.341 109.375 140.347 119.132 143.02 129.739C120.045 121.148 108.781 93.0819 119.43 71.0192Z" fill="#60D394"/>
<path d="M220.022 203.253C229.483 198.968 239.178 203.231 247.175 208.471C240.662 212.311 234.171 217.445 226.238 217.572C224.519 216.363 221.062 213.923 219.322 212.693C224.456 211.335 229.59 210.062 234.766 208.832C229.844 208.28 224.944 207.708 220.064 206.901L220.022 203.253Z" fill="#60D394"/>
<path d="M220.145 206.963C225.025 207.769 229.925 208.342 234.847 208.894C229.67 210.124 224.536 211.397 219.403 212.755C221.143 213.985 224.6 216.425 226.318 217.634C221.439 215.81 216.646 213.688 211.893 211.524C214.609 208.087 217.324 204.693 220.061 201.32L220.103 203.314L220.145 206.963Z" fill="#60D394"/>
<path d="M161.897 141.132C170.085 150.805 176.259 163.937 166.627 175.562C165.354 168.858 167.136 161.646 164.399 155.261C163.147 160.585 162.066 165.995 160.644 171.277C153.92 161.751 155.341 150.104 161.897 141.132Z" fill="#60D394"/>
<path d="M233.733 280.082C245.443 280.294 257.832 282.798 266.381 291.517C275.757 299.324 278.791 311.521 281.061 322.956C268.778 322.68 255.456 320.856 246.27 311.882C237.976 304.775 233.797 294.19 233.712 283.413C240.119 288.971 246.335 294.762 252.911 300.15C246.801 293.192 240.055 286.828 233.733 280.082Z" fill="#60D394"/>
<path d="M53.8745 118.169C65.4356 118.614 78.2282 118.211 87.8171 125.763C97.3 131.936 102.348 142.416 105 153.044C97.3632 148.377 89.9377 143.371 82.259 138.831C89.3023 144.856 96.833 150.35 104.215 155.993C80.3916 161.997 54.9139 142.586 53.8745 118.169Z" fill="#60D394"/>
<path d="M192.258 302.281C202.653 309.111 212.347 318.467 214.66 331.217C218.097 342.036 213.981 353.024 209.124 362.634C199.153 354.191 187.019 345.324 184.855 331.493C182.394 321.777 186.212 312.146 188.78 302.918C192.937 313.864 196.671 324.937 201.254 335.715C198.028 324.64 194.252 313.695 192.258 302.281Z" fill="#60D394"/>
<path d="M52.7071 181.594C65.0109 181.128 75.2579 188.956 84.4007 196.189C73.6457 196.295 62.8894 195.722 52.1557 195.892C62.8474 197.293 73.6452 197.908 84.2948 199.733C75.7027 205.906 65.7963 211.697 54.786 210.488C41.6541 210.721 30.5811 202.787 21.7983 193.835C30.7931 187.174 41.1027 181.064 52.7071 181.594Z" fill="#60D394"/>
</svg>