<svg width="550" height="434" viewBox="0 0 550 434" fill="none" xmlns="http://www.w3.org/2000/svg">
<rect width="550" height="434" rx="16" fill="#F4F5F5"/>
<path d="M411.76 220.242C407.553 214.09 402.735 208.294 399.722 201.492C395.545 192.06 395.161 181.464 393.315 171.314C385.363 127.591 348.493 92.2984 305.882 79.6798C269.487 68.9022 228.655 73.3204 195.903 92.5046C163.15 111.689 139.161 145.574 132.923 183.015C126.685 220.456 138.652 260.707 165.042 287.989C191.432 315.271 231.787 328.585 269.062 321.419C297.173 316.014 322.368 299.85 342.649 279.647C338.509 279.459 333.781 278.396 330.027 280.629C321.115 285.111 313.456 291.859 304.115 295.568C287.769 302.883 268.708 300.891 252.636 293.834C252.916 293.956 262.979 283.358 264.054 282.361C267.151 279.492 274.015 274.733 274.982 270.621C263.817 269.201 254.132 276.364 244.413 280.49C238.862 282.845 232.678 284.296 226.813 285.767C223.522 286.593 220.217 287.363 216.923 288.18C215.365 288.567 209.025 291.26 207.751 290.622C190.185 281.831 172.945 269.588 164.257 251.404C152.666 228.618 149.129 201.831 154.469 176.83C161.321 142.281 185.566 111.888 217.418 97.0183C241.544 85.445 269.653 83.3503 295.53 89.6175C319.483 95.1123 340.913 109.004 357.655 126.759C372.817 143.157 381.368 164.999 383.017 187.149C383.686 197.143 386.21 207.36 392.598 215.327C398.608 223.518 406.455 231.76 407.314 242.337C404.618 250.287 394.659 251.077 388.546 255.438C386.513 256.888 390.65 267.944 391.179 269.936C390.9 268.811 390.621 267.686 390.341 266.561C391.981 272.716 389.166 279.131 385.98 284.647C383.482 288.972 380.572 293.294 379.797 298.331C378.913 304.082 381.048 309.604 381.527 315.277C381.827 318.83 381.322 322.656 379.059 325.412C376.161 328.941 371.43 329.668 367.145 329.992C352.672 331.085 337.922 329.543 323.755 332.699C309.588 335.854 295.407 345.35 292.686 359.606C296.91 361.57 301.994 360.077 305.906 357.549C309.818 355.022 313.039 351.537 316.939 348.99C325.143 343.63 335.486 342.917 345.284 343.128C355.082 343.339 365.082 344.288 374.531 341.687C383.98 339.087 392.984 331.873 394.175 322.146C395.036 315.12 391.758 307.957 393.219 301.031C394.098 296.87 396.596 293.27 398.524 289.479C401.547 283.538 403.225 276.917 403.397 270.253C403.457 267.947 403.359 265.54 404.348 263.456C406.082 259.804 410.445 258.39 413.611 255.875C421.667 249.478 420.868 236.695 416.186 227.535C414.89 225.001 413.37 222.595 411.76 220.242Z" fill="#5C9DF5"/>
<path d="M256.652 116.796C256.995 111.541 260.138 107.111 262.73 102.715C267.126 107.231 271.574 112.194 273.016 118.53C274.699 125.433 271.728 132.404 268.019 138.122C267.058 132.078 266.285 125.999 265.1 120.007C265.341 126.051 266.045 132.061 266.646 138.088C259.331 133.744 255.828 125.055 256.652 116.796Z" fill="#60D394"/>
<path d="M293.742 125.451C296.421 118.96 302.928 115.595 309.076 113.088C309.951 119.355 311.342 125.966 309.144 132.096C306.758 138.501 300.765 142.416 295.356 146.056C296.987 140.664 298.928 135.393 300.628 130.035C298.138 135.307 295.82 140.664 293.261 145.919C291.372 139.256 290.136 131.787 293.742 125.451Z" fill="#60D394"/>
<path d="M223.976 138.386C218.447 132.96 217.726 124.786 218.653 117.489C225.641 119.566 233.248 122.159 237.284 128.718C240.975 133.286 240.941 139.416 241.233 144.979C236.803 140.206 232.682 135.175 228.063 130.59C232.115 135.93 236.459 141.03 240.22 146.611C234.261 145.22 227.891 143.451 223.976 138.386Z" fill="#60D394"/>
<path d="M324.374 147.431C329.817 143.963 336.479 144.615 342.609 144.804C340.909 150.574 338.935 156.686 334.127 160.687C328.752 165.598 321.077 165.993 314.225 166.543C316.818 163.967 319.48 161.443 322.073 158.85C318.913 160.859 315.788 162.919 312.646 164.963C313.796 157.734 317.763 150.9 324.374 147.431Z" fill="#60D394"/>
<path d="M260.678 147.929C264.404 149.474 267.684 152.599 268.611 156.617C269.315 160.155 267.684 163.572 266.791 166.903C260.455 162.816 257.055 155.072 260.678 147.929Z" fill="#60D394"/>
<path d="M187.934 152.759C194.442 151.574 201.293 149.462 207.784 151.9C214.171 153.841 218.189 159.576 222.156 164.538C216.06 163.13 210.136 161.156 204.023 159.833C209.896 161.843 215.871 163.766 221.246 166.977C208.471 172.797 192.553 165.998 187.934 152.759Z" fill="#60D394"/>
<path d="M282.158 165.563C284.253 160 289.902 157.802 295.26 156.686C294.178 160.875 293.628 165.58 290.469 168.843C289.284 169.049 286.897 169.461 285.695 169.667C287.224 167.04 288.786 164.447 290.383 161.854C288.168 163.623 285.953 165.374 283.652 167.023L282.158 165.563Z" fill="#60D394"/>
<path d="M283.668 167.027C285.969 165.378 288.184 163.627 290.399 161.858C288.802 164.451 287.24 167.044 285.711 169.671C286.913 169.465 289.3 169.053 290.485 168.847C287.772 170.083 284.973 171.165 282.174 172.212C281.882 169.723 281.608 167.25 281.35 164.777L282.174 165.567L283.668 167.027Z" fill="#60D394"/>
<path d="M233.443 163.953C240.672 164.554 248.485 167.37 249.292 175.973C246.064 173.775 243.866 170.135 240.175 168.658C241.823 171.32 243.575 173.947 245.137 176.66C238.56 175.527 234.422 170.238 233.443 163.953Z" fill="#60D394"/>
<path d="M318.81 191.119C323.635 186.465 329.662 182.465 336.651 182.533C343.605 181.898 349.769 185.607 355.316 189.316C350.233 194.175 344.103 198.829 336.754 198.915C330.521 199.395 324.545 196.803 320.149 192.476C324.992 192.132 329.851 191.96 334.693 191.48C329.404 191.136 324.099 191.291 318.81 191.119Z" fill="#60D394"/>
<path d="M180.459 198.377C185.318 193.878 190.332 188.538 197.269 187.713C203.606 186.374 209.89 188.572 215.265 191.8C210.285 193.002 205.254 193.981 200.308 195.252C205.597 194.84 210.869 194.015 216.14 193.311C208.929 205.382 190.762 207.838 180.459 198.377Z" fill="#60D394"/>
<path d="M310.999 216.882C317.97 215.44 325.68 215.302 331.776 219.527C337.546 222.514 340.327 228.627 342.25 234.483C334.798 235.101 326.299 236.423 319.825 231.701C314.897 228.765 312.545 223.321 309.849 218.548C315.961 221.295 321.954 224.266 328.17 226.773C322.383 223.596 316.425 220.694 310.999 216.882Z" fill="#60D394"/>
<path d="M205.677 224.512C210.467 219.343 217.782 218.364 224.41 217.592C220.1 221.988 215.515 226.109 211.24 230.521C216.134 226.761 220.753 222.64 225.801 219.068C224.822 225.044 223.157 231.397 218.211 235.364C212.991 240.773 205.299 242.043 198.121 241.975C199.066 235.638 200.766 228.993 205.677 224.512Z" fill="#60D394"/>
<path d="M272.28 240.523C272.145 242.582 270.913 244.319 269.897 246.042C268.174 244.272 266.431 242.326 265.866 239.843C265.206 237.137 266.37 234.405 267.824 232.163C268.201 234.533 268.504 236.915 268.968 239.264C268.874 236.895 268.598 234.539 268.362 232.177C271.23 233.88 272.603 237.285 272.28 240.523Z" fill="#60D394"/>
<path d="M257.729 237.131C256.679 239.675 254.128 240.994 251.718 241.977C251.375 239.52 250.83 236.929 251.691 234.526C252.627 232.016 254.976 230.481 257.096 229.054C256.457 231.168 255.696 233.234 255.03 235.334C256.006 233.268 256.914 231.168 257.917 229.108C258.658 231.72 259.142 234.647 257.729 237.131Z" fill="#60D394"/>
<path d="M285.084 232.07C287.251 234.196 287.534 237.4 287.171 240.261C284.431 239.446 281.45 238.43 279.868 235.859C278.421 234.069 278.434 231.666 278.32 229.485C280.056 231.356 281.672 233.328 283.482 235.125C281.894 233.032 280.191 231.033 278.717 228.846C281.052 229.391 283.549 230.084 285.084 232.07Z" fill="#60D394"/>
<path d="M245.756 228.519C243.623 229.879 241.011 229.623 238.608 229.549C239.275 227.287 240.049 224.891 241.933 223.323C244.04 221.398 247.049 221.243 249.734 221.028C248.718 222.038 247.674 223.027 246.658 224.043C247.897 223.256 249.121 222.448 250.353 221.647C249.902 224.481 248.348 227.16 245.756 228.519Z" fill="#60D394"/>
<path d="M270.707 228.321C269.247 227.715 267.961 226.49 267.597 224.916C267.322 223.529 267.961 222.19 268.311 220.884C270.795 222.486 272.127 225.521 270.707 228.321Z" fill="#60D394"/>
<path d="M299.23 226.429C296.679 226.893 293.994 227.721 291.449 226.766C288.946 226.005 287.371 223.757 285.816 221.812C288.205 222.364 290.527 223.138 292.923 223.656C290.621 222.869 288.279 222.115 286.173 220.856C291.18 218.574 297.42 221.24 299.23 226.429Z" fill="#60D394"/>
<path d="M262.296 221.41C261.474 223.59 259.26 224.452 257.16 224.889C257.584 223.247 257.8 221.403 259.038 220.124C259.502 220.043 260.438 219.882 260.909 219.801C260.31 220.831 259.698 221.847 259.072 222.863C259.94 222.17 260.808 221.484 261.71 220.838L262.296 221.41Z" fill="#60D394"/>
<path d="M261.687 220.841C260.785 221.487 259.917 222.173 259.049 222.866C259.675 221.85 260.288 220.834 260.886 219.804C260.415 219.885 259.48 220.046 259.015 220.127C260.079 219.642 261.176 219.218 262.273 218.808C262.387 219.784 262.495 220.753 262.596 221.722L262.273 221.413L261.687 220.841Z" fill="#60D394"/>
<path d="M281.371 222.044C278.538 221.808 275.475 220.704 275.159 217.332C276.424 218.194 277.286 219.62 278.733 220.199C278.087 219.156 277.4 218.126 276.788 217.063C279.366 217.507 280.988 219.58 281.371 222.044Z" fill="#60D394"/>
<path d="M247.933 211.397C246.041 213.221 243.679 214.789 240.94 214.762C238.214 215.011 235.797 213.557 233.623 212.103C235.616 210.198 238.019 208.375 240.899 208.341C243.342 208.152 245.685 209.169 247.408 210.865C245.51 211 243.605 211.067 241.707 211.256C243.78 211.39 245.86 211.329 247.933 211.397Z" fill="#60D394"/>
<path d="M302.15 208.55C300.245 210.313 298.28 212.407 295.561 212.73C293.077 213.255 290.614 212.393 288.507 211.128C290.459 210.657 292.431 210.273 294.369 209.775C292.296 209.936 290.23 210.259 288.164 210.535C290.991 205.804 298.111 204.841 302.15 208.55Z" fill="#60D394"/>
<path d="M250.991 201.296C248.258 201.861 245.236 201.915 242.847 200.259C240.585 199.088 239.495 196.692 238.741 194.397C241.662 194.155 244.994 193.637 247.531 195.487C249.463 196.638 250.385 198.772 251.441 200.643C249.045 199.566 246.696 198.402 244.26 197.419C246.528 198.664 248.864 199.802 250.991 201.296Z" fill="#60D394"/>
<path d="M292.274 198.303C290.396 200.329 287.528 200.713 284.931 201.016C286.62 199.293 288.417 197.677 290.093 195.948C288.175 197.422 286.364 199.037 284.385 200.437C284.769 198.095 285.422 195.604 287.36 194.05C289.406 191.929 292.422 191.431 295.235 191.458C294.865 193.942 294.199 196.547 292.274 198.303Z" fill="#60D394"/>
<path d="M266.096 174.658H272.366V187.197H283.86V193.467H272.366V216.455H266.096V193.467H254.602V187.197H266.096V174.658Z" fill="#5C9DF5"/>
</svg>